<?xml version="1.0" encoding="UTF-8"?>
<!-- Generated by Pixelmator Pro 4.0 -->
<svg width="1080" height="1080" viewBox="0 0 1080 1080" xmlns="http://www.w3.org/2000/svg">
    <path id="Rectangle" fill="#3f3f3f" fill-rule="evenodd" stroke="none" d="M 0 1080 L 1080 1080 L 1080 0 L 0 0 Z"/>
    <path id="Path" fill="#d7d7d7" fill-rule="evenodd" stroke="none" d="M 1750 541.815186 C 1750 988.380371 1345.961548 1229.388062 534.313049 1229.388062 C -266.703766 1229.388062 -670.758911 988.380371 -670.758911 541.815186 C -670.758911 91.644348 -263.148651 -149.363525 541.406494 -149.363525 C 1345.961548 -149.363525 1750 91.644348 1750 541.815186 Z M 1675.569458 541.815186 C 1675.569458 148.357971 1303.417969 -67.814453 541.406494 -67.814453 C -220.621826 -67.814453 -596.328552 144.819641 -596.328552 541.815186 C -596.328552 938.743286 -224.176971 1147.872803 534.313049 1147.872803 C 1296.341431 1147.872803 1675.569458 942.315308 1675.569458 541.815186 Z M 959.648376 132.553589 C 975.157898 136.664734 990.204102 141.079163 1004.761536 145.763184 C 1225.053345 216.663696 1335.506836 350.343384 1335.506836 541.174927 C 1335.506836 834.818848 1069.823853 993.333984 536.124329 993.333984 C 371.821594 993.333984 232.901871 977.90033 119.541992 947.740662 C 103.948257 943.595825 88.83477 939.181396 74.201408 934.497314 C -145.694504 863.799072 -256.248993 730.624756 -256.248993 541.174927 C -256.248993 245.205872 11.759151 86.724426 540.78302 86.724426 C 706.172607 86.724426 845.80835 102.225403 959.648376 132.553589 Z M 991.391907 197.118896 L 802.085327 924.1521 C 1125.484375 881.692627 1286.577393 752.865479 1286.577393 541.174927 C 1286.577393 377.975708 1189.148315 261.144958 991.391907 197.118896 Z M 667.116638 143.606445 L 460.127045 938.608521 C 484.760284 939.349854 510.109528 939.720581 536.124329 939.720581 C 614.109741 939.720581 685.987488 936.451843 751.791077 929.914429 L 946.253479 183.909241 C 867.181335 162.982849 774.191895 149.436279 667.116638 143.606445 Z M 87.301476 884.253723 L 277.121979 156.074768 C -47.052185 199.342896 -207.319595 330.933472 -207.319595 541.174927 C -207.319595 705.890503 -109.890427 821.407043 87.301476 884.253723 Z M 327.205536 150.211304 L 132.675766 897.2948 C 211.781647 917.850586 304.796448 930.992798 411.854736 936.620361 L 619.097107 141.550964 C 593.739319 140.742188 567.631897 140.33783 540.78302 140.33783 C 463.572632 140.33783 392.385773 143.640259 327.205536 150.211304 Z"/>
</svg>
